<svg xmlns="http://www.w3.org/2000/svg" viewBox="0 0 400 400" width="400" height="400">
  <defs>
    <radialGradient id="gg-glow" cx="50%" cy="50%" r="50%">
      <stop offset="0%" stop-color="#001520" />
      <stop offset="100%" stop-color="#0A0010" />
    </radialGradient>
    <filter id="gg-neon">
      <feGaussianBlur stdDeviation="2.5" result="blur"/>
      <feMerge><feMergeNode in="blur"/><feMergeNode in="SourceGraphic"/></feMerge>
    </filter>
    <filter id="gg-glitch-shift">
      <feOffset dx="3" dy="0" in="SourceGraphic" result="red"/>
      <feOffset dx="-3" dy="0" in="SourceGraphic" result="blue"/>
      <feColorMatrix in="red" type="matrix" values="1 0 0 0 0  0 0 0 0 0  0 0 0 0 0  0 0 0 0.3 0" result="red-only"/>
      <feColorMatrix in="blue" type="matrix" values="0 0 0 0 0  0 0 0 0 0  0 0 1 0 0  0 0 0 0.3 0" result="blue-only"/>
      <feMerge>
        <feMergeNode in="red-only"/>
        <feMergeNode in="blue-only"/>
        <feMergeNode in="SourceGraphic"/>
      </feMerge>
    </filter>
  </defs>
  <!-- Background -->
  <rect width="400" height="400" fill="#0A0010"/>
  <rect width="400" height="400" fill="url(#gg-glow)" opacity="0.5"/>
  <line x1="0" y1="380" x2="400" y2="380" stroke="#00FFFF20" stroke-width="1"/>
  <!-- Scanlines -->
  <line x1="0" y1="150" x2="400" y2="150" stroke="#00FFFF" stroke-width="0.5" opacity="0.1"/>
  <line x1="0" y1="200" x2="400" y2="200" stroke="#FF1493" stroke-width="0.5" opacity="0.1"/>
  <line x1="0" y1="250" x2="400" y2="250" stroke="#00FFFF" stroke-width="0.5" opacity="0.1"/>
  <line x1="0" y1="300" x2="400" y2="300" stroke="#FF1493" stroke-width="0.5" opacity="0.1"/>
  <!-- Ghost/afterimage (pink, offset) -->
  <g opacity="0.2" transform="translate(5, -3)">
    <ellipse cx="200" cy="240" rx="85" ry="60" fill="none" stroke="#FF1493" stroke-width="2"/>
    <ellipse cx="215" cy="120" rx="40" ry="35" fill="none" stroke="#FF1493" stroke-width="2"/>
    <rect x="160" y="280" width="20" height="70" rx="8" fill="none" stroke="#FF1493" stroke-width="2"/>
    <rect x="210" y="280" width="20" height="70" rx="8" fill="none" stroke="#FF1493" stroke-width="2"/>
  </g>
  <!-- Ghost/afterimage (cyan, offset) -->
  <g opacity="0.2" transform="translate(-5, 3)">
    <ellipse cx="200" cy="240" rx="85" ry="60" fill="none" stroke="#00FFFF" stroke-width="2"/>
    <ellipse cx="215" cy="120" rx="40" ry="35" fill="none" stroke="#00FFFF" stroke-width="2"/>
    <rect x="160" y="280" width="20" height="70" rx="8" fill="none" stroke="#00FFFF" stroke-width="2"/>
    <rect x="210" y="280" width="20" height="70" rx="8" fill="none" stroke="#00FFFF" stroke-width="2"/>
  </g>
  <!-- Main pony body (semi-transparent, glitchy) -->
  <g filter="url(#gg-glitch-shift)">
    <ellipse cx="200" cy="240" rx="85" ry="60" fill="#00FFFF" opacity="0.35" stroke="#00FFFF" stroke-width="1"/>
  </g>
  <!-- Fragmented body sections -->
  <rect x="150" y="220" width="50" height="8" fill="#00FFFF" opacity="0.25"/>
  <rect x="195" y="235" width="60" height="5" fill="#FF1493" opacity="0.2"/>
  <rect x="160" y="250" width="40" height="4" fill="#00FFFF" opacity="0.2"/>
  <rect x="210" y="260" width="35" height="3" fill="#FF1493" opacity="0.15"/>
  <!-- Neck (fragmented) -->
  <path d="M 240 200 Q 250 170 240 140 Q 235 130 225 125" fill="none" stroke="#00FFFF" stroke-width="2" opacity="0.5"/>
  <line x1="230" y1="170" x2="248" y2="170" stroke="#FF1493" stroke-width="3" opacity="0.3"/>
  <!-- Head (semi-transparent) -->
  <ellipse cx="215" cy="120" rx="40" ry="35" fill="#00FFFF" opacity="0.3" stroke="#00FFFF" stroke-width="1.5"/>
  <!-- Head glitch fragments -->
  <rect x="190" y="110" width="35" height="3" fill="#FF1493" opacity="0.35"/>
  <rect x="200" y="125" width="25" height="2" fill="#00FFFF" opacity="0.3"/>
  <!-- Ear -->
  <polygon points="195,95 185,65 205,85" fill="none" stroke="#00FFFF" stroke-width="1.5" opacity="0.5"/>
  <!-- Eyes (glowing, unstable) -->
  <circle cx="205" cy="118" r="7" fill="#0A0010" opacity="0.6"/>
  <circle cx="205" cy="118" r="4" fill="#00FFFF" filter="url(#gg-neon)" opacity="0.8"/>
  <circle cx="233" cy="115" r="7" fill="#0A0010" opacity="0.6"/>
  <circle cx="233" cy="115" r="4" fill="#FF1493" filter="url(#gg-neon)" opacity="0.8"/>
  <!-- Muzzle -->
  <ellipse cx="245" cy="130" rx="14" ry="9" fill="#00FFFF" opacity="0.2"/>
  <!-- Front legs (fragmented) -->
  <rect x="160" y="280" width="20" height="30" rx="8" fill="#00FFFF" opacity="0.3"/>
  <rect x="162" y="315" width="16" height="25" rx="6" fill="#FF1493" opacity="0.25"/>
  <rect x="210" y="280" width="20" height="35" rx="8" fill="#FF1493" opacity="0.25"/>
  <rect x="212" y="320" width="16" height="22" rx="6" fill="#00FFFF" opacity="0.3"/>
  <!-- Back legs (fragmented) -->
  <rect x="130" y="275" width="22" height="35" rx="8" fill="#00FFFF" opacity="0.25"/>
  <rect x="133" y="315" width="16" height="27" rx="6" fill="#FF1493" opacity="0.2"/>
  <rect x="240" y="275" width="22" height="40" rx="8" fill="#FF1493" opacity="0.2"/>
  <rect x="243" y="320" width="16" height="22" rx="6" fill="#00FFFF" opacity="0.25"/>
  <!-- Hooves (flickering) -->
  <rect x="158" y="342" width="24" height="10" rx="4" fill="#00FFFF" opacity="0.5" filter="url(#gg-neon)"/>
  <rect x="208" y="342" width="24" height="10" rx="4" fill="#FF1493" opacity="0.5" filter="url(#gg-neon)"/>
  <rect x="128" y="342" width="26" height="10" rx="4" fill="#FF1493" opacity="0.4" filter="url(#gg-neon)"/>
  <rect x="238" y="342" width="26" height="10" rx="4" fill="#00FFFF" opacity="0.4" filter="url(#gg-neon)"/>
  <!-- Corrupted pixel trail -->
  <rect x="100" y="200" width="5" height="5" fill="#00FFFF" opacity="0.3"/>
  <rect x="90" y="210" width="3" height="3" fill="#FF1493" opacity="0.4"/>
  <rect x="85" y="220" width="4" height="4" fill="#00FFFF" opacity="0.2"/>
  <rect x="295" y="190" width="4" height="4" fill="#FF1493" opacity="0.3"/>
  <rect x="305" y="200" width="3" height="3" fill="#00FFFF" opacity="0.25"/>
  <rect x="310" y="215" width="5" height="3" fill="#FF1493" opacity="0.2"/>
  <!-- Mane (static/glitch streaks) -->
  <path d="M 195 88 Q 178 72 183 95" stroke="#00FFFF" stroke-width="2" fill="none" opacity="0.5" filter="url(#gg-neon)"/>
  <path d="M 192 90 Q 172 76 178 102" stroke="#FF1493" stroke-width="2" fill="none" opacity="0.4" filter="url(#gg-neon)"/>
  <path d="M 189 92 Q 168 82 175 108" stroke="#00FFFF" stroke-width="2" fill="none" opacity="0.3" filter="url(#gg-neon)"/>
  <rect x="168" y="95" width="18" height="2" fill="#FF1493" opacity="0.4"/>
  <rect x="172" y="105" width="12" height="2" fill="#00FFFF" opacity="0.3"/>
  <!-- Tail (dissolving) -->
  <path d="M 120 238 Q 98 225 90 248" stroke="#00FFFF" stroke-width="2" fill="none" opacity="0.4" filter="url(#gg-neon)"/>
  <rect x="85" y="245" width="10" height="3" fill="#FF1493" opacity="0.3"/>
  <rect x="80" y="252" width="6" height="4" fill="#00FFFF" opacity="0.2"/>
  <!-- Name label -->
  <text x="202" y="390" text-anchor="middle" fill="#00FFFF" font-family="monospace" font-size="12" font-weight="bold" letter-spacing="2" opacity="0.8">GLITCH GALLOP</text>
  <text x="198" y="390" text-anchor="middle" fill="#FF1493" font-family="monospace" font-size="12" font-weight="bold" letter-spacing="2" opacity="0.3">GLITCH GALLOP</text>
</svg>